<svg t="1721798570345" class="icon" viewBox="0 0 1024 1024" version="1.1" xmlns="http://www.w3.org/2000/svg" p-id="11219" width="200" height="200"><path d="M917.504 223.232H102.4L19.114667 438.954667a120.832 120.832 0 0 0 122.538666 118.442666 121.173333 121.173333 0 0 0 123.904-118.442666 120.832 120.832 0 0 0 122.538667 118.442666A121.173333 121.173333 0 0 0 512 438.954667a122.538667 122.538667 0 0 0 245.077333 0 123.904 123.904 0 0 0 247.808 0l-87.381333-215.722667z m-68.266667 371.370667v275.114666H174.08v-275.114666H102.4v288.768a61.781333 61.781333 0 0 0 53.589333 54.954666h709.290667a62.122667 62.122667 0 0 0 53.589333-54.954666v-288.768z m68.266667-372.736l2.730667 2.389333-2.730667-2.389333zM160.085333 168.277333h703.829334a41.301333 41.301333 0 1 0 0-82.602666H160.085333a41.301333 41.301333 0 1 0 0 82.602666z" fill="#ff6430" p-id="11220"></path></svg>