<?xml version="1.0" standalone="no"?><!DOCTYPE svg PUBLIC "-//W3C//DTD SVG 1.1//EN" "http://www.w3.org/Graphics/SVG/1.1/DTD/svg11.dtd"><svg fill="#ff6430" class="icon" width="200px" height="199.80px" viewBox="0 0 1025 1024" version="1.1" xmlns="http://www.w3.org/2000/svg"><path d="M53.806345 187.108638c-14.692826 0.199902-28.685993 6.296925-38.781064 16.991704-10.095071 10.594827-15.492435 24.887848-14.992679 39.580673-0.099951 30.185261 23.588482 55.17306 53.773743 56.572377H161.453783c14.692826-0.199902 28.685993-6.296925 38.781064-16.991703 10.095071-10.594827 15.492435-24.887848 14.992679-39.580674 0.099951-30.185261-23.588482-55.17306-53.773743-56.572377H53.806345z m0 277.364568c-14.692826 0.199902-28.685993 6.296925-38.781064 16.991704-10.095071 10.594827-15.492435 24.887848-14.992679 39.580673-0.099951 30.185261 23.588482 55.17306 53.773743 56.572377H161.453783c14.692826-0.199902 28.685993-6.296925 38.781064-16.991703 10.095071-10.594827 15.492435-24.887848 14.992679-39.580674 0.099951-30.185261-23.588482-55.17306-53.773743-56.572377H53.806345z m0 280.063251c-28.985847 2.998536-50.875159 27.486579-50.875158 56.572377s21.989263 53.47389 50.875158 56.572376H161.453783c28.985847-3.098487 50.875159-27.486579 50.875159-56.572376s-21.989263-53.47389-50.875159-56.572377H53.806345zM969.959005 0.499756H158.755101c-14.692826 0.199902-28.685993 6.296925-38.781064 16.991703-10.095071 10.594827-15.492435 24.887848-14.992679 39.580674v73.464129h53.773743C218.625867 132.03553 266.402539 181.011615 266.402539 240.882382c0.499756 28.985847-10.594827 56.87223-30.784969 77.562128-20.190142 20.689898-47.876623 32.484139-76.762518 32.783992h-53.773743V407.800878h53.773743c59.870766 1.499268 107.647438 50.475354 107.647438 110.346121 0.499756 28.985847-10.594827 56.87223-30.784968 77.562127-20.190142 20.689898-47.876623 32.484139-76.762519 32.783993h-53.773743v56.572376h53.773743C218.625867 686.664714 266.402539 735.6408 266.402539 795.511567c0.499756 28.985847-10.594827 56.87223-30.784969 77.562127-20.190142 20.689898-47.876623 32.484139-76.762518 32.783993h-53.773743v61.569936c-0.099951 30.185261 23.588482 55.17306 53.773743 56.572377H970.058956c14.692826-0.199902 28.685993-6.296925 38.781064-16.991703 10.095071-10.594827 15.492435-24.887848 14.99268-39.580674V49.175988c-2.398829-27.886384-25.987311-49.076037-53.873695-48.676232zM824.729918 413.098292c22.289117 0 40.380283 18.091166 40.380283 40.380283 0 22.289117-18.091166 40.380283-40.380283 40.380283H703.589069v48.47633h121.040898c22.289117 0 40.380283 18.091166 40.380283 40.380283 0 22.289117-18.091166 40.380283-40.380283 40.380283H703.589069v134.634261c0.599707 14.792777-6.996584 28.685993-19.690386 36.182332-12.693802 7.596291-28.586042 7.596291-41.279844 0-12.693802-7.596291-20.290093-21.489507-19.690385-36.182332V623.59551H501.787605c-22.289117 0-40.380283-18.091166-40.380284-40.380283 0-22.289117 18.091166-40.380283 40.380284-40.380283h121.040898v-48.47633H501.787605c-22.289117 0-40.380283-18.091166-40.380284-40.380283 0-22.289117 18.091166-40.380283 40.380284-40.380283h59.171107L472.302002 324.741435c-10.694778-9.99512-15.192582-24.987799-11.594339-39.180869 3.598243-14.19307 14.692826-25.287653 28.885896-28.885895 14.19307-3.598243 29.185749 0.79961 39.180868 11.494387l123.739581 123.839532 2.698682 2.698682h16.192094l2.698682-2.698682 123.73958-123.839532c15.792289-14.592875 40.280332-14.19307 55.472914 1.099463 15.192582 15.192582 15.592387 39.680625 0.999512 55.472914l-88.656711 88.356857h59.071157z m0 0" /></svg>