<?xml version="1.0" standalone="no"?><!DOCTYPE svg PUBLIC "-//W3C//DTD SVG 1.1//EN" "http://www.w3.org/Graphics/SVG/1.1/DTD/svg11.dtd"><svg fill="#ff6430" class="icon" width="200px" height="200.00px" viewBox="0 0 1024 1024" version="1.1" xmlns="http://www.w3.org/2000/svg"><path d="M921.6 0H102.4A102.698667 102.698667 0 0 0 0 102.4v819.2a102.698667 102.698667 0 0 0 102.4 102.4h819.2a102.698667 102.698667 0 0 0 102.4-102.4V102.4a102.698667 102.698667 0 0 0-102.4-102.4zM289.109333 739.413333H238.933333l12.16-249.344h49.664z m89.301334-1.066666H312.362667v-271.530667H238.933333V413.866667l73.429334-1.024v-55.466667l-70.784 8.96V309.930667l200.746666-25.344V341.333333l-64 8.533334v63.104h73.514667v52.821333H378.410667z m26.922666 1.066666l-12.16-249.344h49.152l12.117334 249.344z m388.266667 0h-324.864v-62.848h21.333333V291.456h211.285334a66.133333 66.133333 0 0 1 26.410666 5.802667 63.146667 63.146667 0 0 1 26.410667 14.805333 71.210667 71.210667 0 0 1 15.317333 22.186667 66.901333 66.901333 0 0 1 5.845334 27.477333l-3.712 314.837333H793.6zM666.282667 354.133333h-89.258667v68.693334h109.354667V372.266667a20.608 20.608 0 0 0-5.290667-14.762667 21.802667 21.802667 0 0 0-14.805333-3.370667z m-89.258667 324.906667h109.354667v-69.589333h-109.354667z m0-127.317333h109.354667v-70.613334h-109.354667z" /></svg>